{
  "asset": {
    "generator": "Khronos glTF Blender I/O v3.2.43",
    "version": "2.0"
  },
  "scene": 0,
  "scenes": [
    {
      "name": "Scene",
      "nodes": [
        0
      ]
    }
  ],
  "nodes": [
    {
      "mesh": 0,
      "name": "sphere_gltf"
    }
  ],
  "materials": [
    {
      "doubleSided": true,
      "name": "rocky_trail",
      "normalTexture": {
        "index": 0
      },
      "pbrMetallicRoughness": {
        "baseColorTexture": {
          "index": 1
        },
        "metallicFactor": 0,
        "metallicRoughnessTexture": {
          "index": 2
        }
      }
    }
  ],
  "meshes": [
    {
      "name": "Sphere.001",
      "primitives": [
        {
          "attributes": {
            "POSITION": 0,
            "NORMAL": 1,
            "TEXCOORD_0": 2
          },
          "indices": 3,
          "material": 0
        }
      ]
    }
  ],
  "textures": [
    {
      "sampler": 0,
      "source": 0
    },
    {
      "sampler": 0,
      "source": 1
    },
    {
      "sampler": 0,
      "source": 2
    }
  ],
  "images": [
    {
      "mimeType": "image/jpeg",
      "name": "rocky_trail_nor_gl",
      "uri": "textures/rocky_trail_nor_gl_4k.jpg"
    },
    {
      "mimeType": "image/jpeg",
      "name": "rocky_trail_diff",
      "uri": "textures/rocky_trail_diff_4k.jpg"
    },
    {
      "mimeType": "image/jpeg",
      "name": "rocky_trail_rough",
      "uri": "textures/rocky_trail_arm_4k.jpg"
    }
  ],
  "accessors": [
    {
      "bufferView": 0,
      "componentType": 5126,
      "count": 53921,
      "max": [
        1.007501482963562,
        1.0091909170150757,
        1.0000089406967163
      ],
      "min": [
        -1.007501482963562,
        -1.014905571937561,
        -1.000001072883606
      ],
      "type": "VEC3"
    },
    {
      "bufferView": 1,
      "componentType": 5126,
      "count": 53921,
      "type": "VEC3"
    },
    {
      "bufferView": 2,
      "componentType": 5126,
      "count": 53921,
      "type": "VEC2"
    },
    {
      "bufferView": 3,
      "componentType": 5123,
      "count": 322170,
      "type": "SCALAR"
    }
  ],
  "bufferViews": [
    {
      "buffer": 0,
      "byteLength": 647052,
      "byteOffset": 0
    },
    {
      "buffer": 0,
      "byteLength": 647052,
      "byteOffset": 647052
    },
    {
      "buffer": 0,
      "byteLength": 431368,
      "byteOffset": 1294104
    },
    {
      "buffer": 0,
      "byteLength": 644340,
      "byteOffset": 1725472
    }
  ],
  "samplers": [
    {
      "magFilter": 9729,
      "minFilter": 9987
    }
  ],
  "buffers": [
    {
      "byteLength": 2369812,
      "uri": "rocky_trail.bin"
    }
  ]
}