{
  "asset": {
    "generator": "Khronos glTF Blender I/O v1.6.16",
    "version": "2.0"
  },
  "scene": 0,
  "scenes": [
    {
      "name": "Scene",
      "nodes": [
        0
      ]
    }
  ],
  "nodes": [
    {
      "mesh": 0,
      "name": "sphere_gltf"
    }
  ],
  "materials": [
    {
      "doubleSided": true,
      "name": "clay_floor_001",
      "normalTexture": {
        "index": 0
      },
      "pbrMetallicRoughness": {
        "baseColorTexture": {
          "index": 1
        },
        "metallicFactor": 0,
        "metallicRoughnessTexture": {
          "index": 2
        }
      }
    }
  ],
  "meshes": [
    {
      "name": "Sphere.001",
      "primitives": [
        {
          "attributes": {
            "POSITION": 0,
            "NORMAL": 1,
            "TEXCOORD_0": 2
          },
          "indices": 3,
          "material": 0
        }
      ]
    }
  ],
  "textures": [
    {
      "sampler": 0,
      "source": 0
    },
    {
      "sampler": 0,
      "source": 1
    },
    {
      "sampler": 0,
      "source": 2
    }
  ],
  "images": [
    {
      "mimeType": "image/jpeg",
      "name": "clay_floor_001_nor_gl_16k",
      "uri": "textures/clay_floor_001_nor_gl_16k.jpg"
    },
    {
      "mimeType": "image/jpeg",
      "name": "clay_floor_001_diff_16k",
      "uri": "textures/clay_floor_001_diff_16k.jpg"
    },
    {
      "mimeType": "image/jpeg",
      "name": "clay_floor_001_rough_16k",
      "uri": "textures/clay_floor_001_rough_16k.jpg"
    }
  ],
  "accessors": [
    {
      "bufferView": 0,
      "componentType": 5126,
      "count": 53944,
      "max": [
        1.0000487565994263,
        0.9999874234199524,
        1.0001554489135742
      ],
      "min": [
        -1.0000485181808472,
        -0.9999604225158691,
        -1.000170111656189
      ],
      "type": "VEC3"
    },
    {
      "bufferView": 1,
      "componentType": 5126,
      "count": 53944,
      "type": "VEC3"
    },
    {
      "bufferView": 2,
      "componentType": 5126,
      "count": 53944,
      "type": "VEC2"
    },
    {
      "bufferView": 3,
      "componentType": 5123,
      "count": 322170,
      "type": "SCALAR"
    }
  ],
  "bufferViews": [
    {
      "buffer": 0,
      "byteLength": 647328,
      "byteOffset": 0
    },
    {
      "buffer": 0,
      "byteLength": 647328,
      "byteOffset": 647328
    },
    {
      "buffer": 0,
      "byteLength": 431552,
      "byteOffset": 1294656
    },
    {
      "buffer": 0,
      "byteLength": 644340,
      "byteOffset": 1726208
    }
  ],
  "samplers": [
    {
      "magFilter": 9729,
      "minFilter": 9987
    }
  ],
  "buffers": [
    {
      "byteLength": 2370548,
      "uri": "clay_floor_001.bin"
    }
  ]
}