{
  "asset": {
    "generator": "Khronos glTF Blender I/O v1.6.16",
    "version": "2.0"
  },
  "scene": 0,
  "scenes": [
    {
      "name": "Scene",
      "nodes": [
        0
      ]
    }
  ],
  "nodes": [
    {
      "mesh": 0,
      "name": "sphere_gltf"
    }
  ],
  "materials": [
    {
      "doubleSided": true,
      "name": "rust_coarse_01",
      "normalTexture": {
        "index": 0
      },
      "pbrMetallicRoughness": {
        "baseColorTexture": {
          "index": 1
        },
        "metallicFactor": 0,
        "metallicRoughnessTexture": {
          "index": 2
        }
      }
    }
  ],
  "meshes": [
    {
      "name": "Sphere.001",
      "primitives": [
        {
          "attributes": {
            "POSITION": 0,
            "NORMAL": 1,
            "TEXCOORD_0": 2
          },
          "indices": 3,
          "material": 0
        }
      ]
    }
  ],
  "textures": [
    {
      "sampler": 0,
      "source": 0
    },
    {
      "sampler": 0,
      "source": 1
    },
    {
      "sampler": 0,
      "source": 2
    }
  ],
  "images": [
    {
      "mimeType": "image/jpeg",
      "name": "rust_coarse_01_nor_gl_16k",
      "uri": "textures/rust_coarse_01_nor_gl_4k.jpg"
    },
    {
      "mimeType": "image/jpeg",
      "name": "rust_coarse_01_diff_16k",
      "uri": "textures/rust_coarse_01_diff_4k.jpg"
    },
    {
      "mimeType": "image/jpeg",
      "name": "rust_coarse_01_arm_16k",
      "uri": "textures/rust_coarse_01_arm_4k.jpg"
    }
  ],
  "accessors": [
    {
      "bufferView": 0,
      "componentType": 5126,
      "count": 53911,
      "max": [
        1.0998294353485107,
        1.1012333631515503,
        1.0995185375213623
      ],
      "min": [
        -1.0998296737670898,
        -1.1009072065353394,
        -1.099517583847046
      ],
      "type": "VEC3"
    },
    {
      "bufferView": 1,
      "componentType": 5126,
      "count": 53911,
      "type": "VEC3"
    },
    {
      "bufferView": 2,
      "componentType": 5126,
      "count": 53911,
      "type": "VEC2"
    },
    {
      "bufferView": 3,
      "componentType": 5123,
      "count": 322170,
      "type": "SCALAR"
    }
  ],
  "bufferViews": [
    {
      "buffer": 0,
      "byteLength": 646932,
      "byteOffset": 0
    },
    {
      "buffer": 0,
      "byteLength": 646932,
      "byteOffset": 646932
    },
    {
      "buffer": 0,
      "byteLength": 431288,
      "byteOffset": 1293864
    },
    {
      "buffer": 0,
      "byteLength": 644340,
      "byteOffset": 1725152
    }
  ],
  "samplers": [
    {
      "magFilter": 9729,
      "minFilter": 9987
    }
  ],
  "buffers": [
    {
      "byteLength": 2369492,
      "uri": "rust_coarse_01.bin"
    }
  ]
}