{
  "asset": {
    "generator": "Khronos glTF Blender I/O v1.6.16",
    "version": "2.0"
  },
  "scene": 0,
  "scenes": [
    {
      "name": "Scene",
      "nodes": [
        0
      ]
    }
  ],
  "nodes": [
    {
      "mesh": 0,
      "name": "sphere_gltf"
    }
  ],
  "materials": [
    {
      "doubleSided": true,
      "name": "roof_3",
      "normalTexture": {
        "index": 0
      },
      "pbrMetallicRoughness": {
        "baseColorTexture": {
          "index": 1
        },
        "metallicFactor": 0,
        "metallicRoughnessTexture": {
          "index": 2
        }
      }
    }
  ],
  "meshes": [
    {
      "name": "Sphere.001",
      "primitives": [
        {
          "attributes": {
            "POSITION": 0,
            "NORMAL": 1,
            "TEXCOORD_0": 2
          },
          "indices": 3,
          "material": 0
        }
      ]
    }
  ],
  "textures": [
    {
      "sampler": 0,
      "source": 0
    },
    {
      "sampler": 0,
      "source": 1
    },
    {
      "sampler": 0,
      "source": 2
    }
  ],
  "images": [
    {
      "mimeType": "image/jpeg",
      "name": "roof_3_nor_gl_4k",
      "uri": "textures/roof_3_nor_gl_8k.jpg"
    },
    {
      "mimeType": "image/jpeg",
      "name": "roof_3_diff_4k",
      "uri": "textures/roof_3_diff_8k.jpg"
    },
    {
      "mimeType": "image/jpeg",
      "name": "roof_3_rough_4k",
      "uri": "textures/roof_3_rough_8k.jpg"
    }
  ],
  "accessors": [
    {
      "bufferView": 0,
      "componentType": 5126,
      "count": 53822,
      "max": [
        1.0161734819412231,
        1.0240154266357422,
        1.0255939960479736
      ],
      "min": [
        -1.0161738395690918,
        -1.0263062715530396,
        -1.0255845785140991
      ],
      "type": "VEC3"
    },
    {
      "bufferView": 1,
      "componentType": 5126,
      "count": 53822,
      "type": "VEC3"
    },
    {
      "bufferView": 2,
      "componentType": 5126,
      "count": 53822,
      "type": "VEC2"
    },
    {
      "bufferView": 3,
      "componentType": 5123,
      "count": 322170,
      "type": "SCALAR"
    }
  ],
  "bufferViews": [
    {
      "buffer": 0,
      "byteLength": 645864,
      "byteOffset": 0
    },
    {
      "buffer": 0,
      "byteLength": 645864,
      "byteOffset": 645864
    },
    {
      "buffer": 0,
      "byteLength": 430576,
      "byteOffset": 1291728
    },
    {
      "buffer": 0,
      "byteLength": 644340,
      "byteOffset": 1722304
    }
  ],
  "samplers": [
    {
      "magFilter": 9729,
      "minFilter": 9987
    }
  ],
  "buffers": [
    {
      "byteLength": 2366644,
      "uri": "roof_3.bin"
    }
  ]
}