{
  "asset": {
    "generator": "Khronos glTF Blender I/O v1.8.19",
    "version": "2.0"
  },
  "scene": 0,
  "scenes": [
    {
      "name": "Scene",
      "nodes": [
        0,
        1,
        2,
        3,
        4
      ]
    }
  ],
  "nodes": [
    {
      "mesh": 0,
      "name": "dandelion_01_a_LOD0"
    },
    {
      "mesh": 1,
      "name": "dandelion_01_b_LOD0"
    },
    {
      "mesh": 2,
      "name": "dandelion_01_c_LOD0"
    },
    {
      "mesh": 3,
      "name": "dandelion_01_d_LOD0"
    },
    {
      "mesh": 4,
      "name": "dandelion_01_e_LOD0"
    }
  ],
  "materials": [
    {
      "alphaCutoff": 0.5,
      "alphaMode": "MASK",
      "doubleSided": true,
      "name": "dandelion_01",
      "normalTexture": {
        "index": 0
      },
      "pbrMetallicRoughness": {
        "baseColorTexture": {
          "index": 1
        },
        "metallicFactor": 0,
        "metallicRoughnessTexture": {
          "index": 2
        }
      }
    }
  ],
  "meshes": [
    {
      "name": "Plane.023",
      "primitives": [
        {
          "attributes": {
            "POSITION": 0,
            "NORMAL": 1,
            "TEXCOORD_0": 2
          },
          "indices": 3,
          "material": 0
        }
      ]
    },
    {
      "name": "Plane.095",
      "primitives": [
        {
          "attributes": {
            "POSITION": 4,
            "NORMAL": 5,
            "TEXCOORD_0": 6
          },
          "indices": 7,
          "material": 0
        }
      ]
    },
    {
      "name": "Plane.041",
      "primitives": [
        {
          "attributes": {
            "POSITION": 8,
            "NORMAL": 9,
            "TEXCOORD_0": 10
          },
          "indices": 11,
          "material": 0
        }
      ]
    },
    {
      "name": "Plane.066",
      "primitives": [
        {
          "attributes": {
            "POSITION": 12,
            "NORMAL": 13,
            "TEXCOORD_0": 14
          },
          "indices": 15,
          "material": 0
        }
      ]
    },
    {
      "name": "Plane.113",
      "primitives": [
        {
          "attributes": {
            "POSITION": 16,
            "NORMAL": 17,
            "TEXCOORD_0": 18
          },
          "indices": 19,
          "material": 0
        }
      ]
    }
  ],
  "textures": [
    {
      "sampler": 0,
      "source": 0
    },
    {
      "sampler": 0,
      "source": 1
    },
    {
      "sampler": 0,
      "source": 2
    }
  ],
  "images": [
    {
      "mimeType": "image/jpeg",
      "name": "dandelion_01_nor_gl",
      "uri": "textures/dandelion_01_nor_gl_8k.jpg"
    },
    {
      "mimeType": "image/jpeg",
      "name": "dandelion_01_diff",
      "uri": "textures/dandelion_01_diff_8k.jpg"
    },
    {
      "mimeType": "image/jpeg",
      "name": "dandelion_01_rough",
      "uri": "textures/dandelion_01_arm_8k.jpg"
    }
  ],
  "accessors": [
    {
      "bufferView": 0,
      "componentType": 5126,
      "count": 18354,
      "max": [
        0.09065495431423187,
        0.16179513931274414,
        0.12392570078372955
      ],
      "min": [
        -0.12780635058879852,
        -0.002436659298837185,
        -0.14069263637065887
      ],
      "type": "VEC3"
    },
    {
      "bufferView": 1,
      "componentType": 5126,
      "count": 18354,
      "type": "VEC3"
    },
    {
      "bufferView": 2,
      "componentType": 5126,
      "count": 18354,
      "type": "VEC2"
    },
    {
      "bufferView": 3,
      "componentType": 5123,
      "count": 70626,
      "type": "SCALAR"
    },
    {
      "bufferView": 4,
      "componentType": 5126,
      "count": 18294,
      "max": [
        -0.260536253452301,
        0.11170691251754761,
        0.11230789124965668
      ],
      "min": [
        -0.46160435676574707,
        -0.002162607852369547,
        -0.11059322953224182
      ],
      "type": "VEC3"
    },
    {
      "bufferView": 5,
      "componentType": 5126,
      "count": 18294,
      "type": "VEC3"
    },
    {
      "bufferView": 6,
      "componentType": 5126,
      "count": 18294,
      "type": "VEC2"
    },
    {
      "bufferView": 7,
      "componentType": 5123,
      "count": 70074,
      "type": "SCALAR"
    },
    {
      "bufferView": 8,
      "componentType": 5126,
      "count": 2272,
      "max": [
        -0.10325406491756439,
        0.09882720559835434,
        -0.10544288158416748
      ],
      "min": [
        -0.25457870960235596,
        -0.0021131327375769615,
        -0.2710490822792053
      ],
      "type": "VEC3"
    },
    {
      "bufferView": 9,
      "componentType": 5126,
      "count": 2272,
      "type": "VEC3"
    },
    {
      "bufferView": 10,
      "componentType": 5126,
      "count": 2272,
      "type": "VEC2"
    },
    {
      "bufferView": 11,
      "componentType": 5123,
      "count": 9540,
      "type": "SCALAR"
    },
    {
      "bufferView": 12,
      "componentType": 5126,
      "count": 1852,
      "max": [
        0.07155151665210724,
        0.053585752844810486,
        -0.28365451097488403
      ],
      "min": [
        -0.06304489076137543,
        -0.0018537492724135518,
        -0.3931386172771454
      ],
      "type": "VEC3"
    },
    {
      "bufferView": 13,
      "componentType": 5126,
      "count": 1852,
      "type": "VEC3"
    },
    {
      "bufferView": 14,
      "componentType": 5126,
      "count": 1852,
      "type": "VEC2"
    },
    {
      "bufferView": 15,
      "componentType": 5123,
      "count": 7812,
      "type": "SCALAR"
    },
    {
      "bufferView": 16,
      "componentType": 5126,
      "count": 1355,
      "max": [
        -0.22155284881591797,
        0.03909555822610855,
        -0.22437982261180878
      ],
      "min": [
        -0.40822404623031616,
        -0.008376996032893658,
        -0.41632387042045593
      ],
      "type": "VEC3"
    },
    {
      "bufferView": 17,
      "componentType": 5126,
      "count": 1355,
      "type": "VEC3"
    },
    {
      "bufferView": 18,
      "componentType": 5126,
      "count": 1355,
      "type": "VEC2"
    },
    {
      "bufferView": 19,
      "componentType": 5123,
      "count": 6240,
      "type": "SCALAR"
    }
  ],
  "bufferViews": [
    {
      "buffer": 0,
      "byteLength": 220248,
      "byteOffset": 0
    },
    {
      "buffer": 0,
      "byteLength": 220248,
      "byteOffset": 220248
    },
    {
      "buffer": 0,
      "byteLength": 146832,
      "byteOffset": 440496
    },
    {
      "buffer": 0,
      "byteLength": 141252,
      "byteOffset": 587328
    },
    {
      "buffer": 0,
      "byteLength": 219528,
      "byteOffset": 728580
    },
    {
      "buffer": 0,
      "byteLength": 219528,
      "byteOffset": 948108
    },
    {
      "buffer": 0,
      "byteLength": 146352,
      "byteOffset": 1167636
    },
    {
      "buffer": 0,
      "byteLength": 140148,
      "byteOffset": 1313988
    },
    {
      "buffer": 0,
      "byteLength": 27264,
      "byteOffset": 1454136
    },
    {
      "buffer": 0,
      "byteLength": 27264,
      "byteOffset": 1481400
    },
    {
      "buffer": 0,
      "byteLength": 18176,
      "byteOffset": 1508664
    },
    {
      "buffer": 0,
      "byteLength": 19080,
      "byteOffset": 1526840
    },
    {
      "buffer": 0,
      "byteLength": 22224,
      "byteOffset": 1545920
    },
    {
      "buffer": 0,
      "byteLength": 22224,
      "byteOffset": 1568144
    },
    {
      "buffer": 0,
      "byteLength": 14816,
      "byteOffset": 1590368
    },
    {
      "buffer": 0,
      "byteLength": 15624,
      "byteOffset": 1605184
    },
    {
      "buffer": 0,
      "byteLength": 16260,
      "byteOffset": 1620808
    },
    {
      "buffer": 0,
      "byteLength": 16260,
      "byteOffset": 1637068
    },
    {
      "buffer": 0,
      "byteLength": 10840,
      "byteOffset": 1653328
    },
    {
      "buffer": 0,
      "byteLength": 12480,
      "byteOffset": 1664168
    }
  ],
  "samplers": [
    {
      "magFilter": 9729,
      "minFilter": 9987
    }
  ],
  "buffers": [
    {
      "byteLength": 1676648,
      "uri": "dandelion_01.bin"
    }
  ]
}